<mxfile host="Electron" agent="Mozilla/5.0 (Windows NT 10.0; Win64; x64) AppleWebKit/537.36 (KHTML, like Gecko) draw.io/24.7.17 Chrome/128.0.6613.36 Electron/32.0.1 Safari/537.36" version="24.7.17">
  <diagram name="第 1 页" id="RRRK9xQsZdRvDHdw0-dO">
    <mxGraphModel dx="1877" dy="717" grid="1" gridSize="10" guides="1" tooltips="1" connect="1" arrows="1" fold="1" page="1" pageScale="1" pageWidth="827" pageHeight="1169" math="0" shadow="0">
      <root>
        <mxCell id="0" />
        <mxCell id="1" parent="0" />
        <mxCell id="wtzsH4SBO5qrxnPHuvGs-1" value="ERC20Impl" style="rounded=0;whiteSpace=wrap;html=1;" vertex="1" parent="1">
          <mxGeometry x="450" y="180" width="120" height="60" as="geometry" />
        </mxCell>
        <mxCell id="wtzsH4SBO5qrxnPHuvGs-3" style="edgeStyle=orthogonalEdgeStyle;rounded=0;orthogonalLoop=1;jettySize=auto;html=1;entryX=0;entryY=0.5;entryDx=0;entryDy=0;" edge="1" parent="1" source="wtzsH4SBO5qrxnPHuvGs-2" target="wtzsH4SBO5qrxnPHuvGs-1">
          <mxGeometry relative="1" as="geometry" />
        </mxCell>
        <mxCell id="wtzsH4SBO5qrxnPHuvGs-6" style="edgeStyle=orthogonalEdgeStyle;rounded=0;orthogonalLoop=1;jettySize=auto;html=1;" edge="1" parent="1" source="wtzsH4SBO5qrxnPHuvGs-2" target="wtzsH4SBO5qrxnPHuvGs-4">
          <mxGeometry relative="1" as="geometry" />
        </mxCell>
        <mxCell id="wtzsH4SBO5qrxnPHuvGs-2" value="Factory" style="rounded=0;whiteSpace=wrap;html=1;" vertex="1" parent="1">
          <mxGeometry x="190" y="260" width="120" height="60" as="geometry" />
        </mxCell>
        <mxCell id="wtzsH4SBO5qrxnPHuvGs-4" value="ERC20Impl" style="rounded=0;whiteSpace=wrap;html=1;" vertex="1" parent="1">
          <mxGeometry x="450" y="320" width="120" height="60" as="geometry" />
        </mxCell>
        <mxCell id="wtzsH4SBO5qrxnPHuvGs-7" value="mintByOnwer" style="rounded=0;whiteSpace=wrap;html=1;" vertex="1" parent="1">
          <mxGeometry x="600" y="180" width="120" height="60" as="geometry" />
        </mxCell>
        <mxCell id="wtzsH4SBO5qrxnPHuvGs-8" value="V1" style="rounded=0;whiteSpace=wrap;html=1;" vertex="1" parent="1">
          <mxGeometry x="-380" y="450" width="120" height="60" as="geometry" />
        </mxCell>
        <mxCell id="wtzsH4SBO5qrxnPHuvGs-10" value="V2" style="rounded=0;whiteSpace=wrap;html=1;" vertex="1" parent="1">
          <mxGeometry x="-380" y="560" width="120" height="60" as="geometry" />
        </mxCell>
        <mxCell id="wtzsH4SBO5qrxnPHuvGs-19" style="edgeStyle=orthogonalEdgeStyle;rounded=0;orthogonalLoop=1;jettySize=auto;html=1;entryX=0;entryY=0.5;entryDx=0;entryDy=0;" edge="1" parent="1" source="wtzsH4SBO5qrxnPHuvGs-13" target="wtzsH4SBO5qrxnPHuvGs-17">
          <mxGeometry relative="1" as="geometry" />
        </mxCell>
        <mxCell id="wtzsH4SBO5qrxnPHuvGs-23" style="edgeStyle=orthogonalEdgeStyle;rounded=0;orthogonalLoop=1;jettySize=auto;html=1;entryX=0;entryY=0.5;entryDx=0;entryDy=0;" edge="1" parent="1" source="wtzsH4SBO5qrxnPHuvGs-13" target="wtzsH4SBO5qrxnPHuvGs-22">
          <mxGeometry relative="1" as="geometry" />
        </mxCell>
        <mxCell id="wtzsH4SBO5qrxnPHuvGs-13" value="Factory升级" style="rounded=0;whiteSpace=wrap;html=1;fillColor=#f8cecc;strokeColor=#b85450;" vertex="1" parent="1">
          <mxGeometry x="190" y="500" width="120" height="60" as="geometry" />
        </mxCell>
        <mxCell id="wtzsH4SBO5qrxnPHuvGs-27" style="edgeStyle=orthogonalEdgeStyle;rounded=0;orthogonalLoop=1;jettySize=auto;html=1;entryX=0.5;entryY=0;entryDx=0;entryDy=0;" edge="1" parent="1" source="wtzsH4SBO5qrxnPHuvGs-17" target="wtzsH4SBO5qrxnPHuvGs-25">
          <mxGeometry relative="1" as="geometry" />
        </mxCell>
        <mxCell id="wtzsH4SBO5qrxnPHuvGs-17" value="ERC20Proxy" style="rounded=0;whiteSpace=wrap;html=1;" vertex="1" parent="1">
          <mxGeometry x="450" y="430" width="120" height="60" as="geometry" />
        </mxCell>
        <mxCell id="wtzsH4SBO5qrxnPHuvGs-21" value="升级：工厂逻辑（mint+生成token方式）" style="rounded=1;whiteSpace=wrap;html=1;" vertex="1" parent="1">
          <mxGeometry x="110" y="670" width="120" height="60" as="geometry" />
        </mxCell>
        <mxCell id="wtzsH4SBO5qrxnPHuvGs-26" style="edgeStyle=orthogonalEdgeStyle;rounded=0;orthogonalLoop=1;jettySize=auto;html=1;" edge="1" parent="1" source="wtzsH4SBO5qrxnPHuvGs-22" target="wtzsH4SBO5qrxnPHuvGs-25">
          <mxGeometry relative="1" as="geometry" />
        </mxCell>
        <mxCell id="wtzsH4SBO5qrxnPHuvGs-22" value="ERC20Proxy" style="rounded=0;whiteSpace=wrap;html=1;" vertex="1" parent="1">
          <mxGeometry x="450" y="560" width="120" height="60" as="geometry" />
        </mxCell>
        <mxCell id="wtzsH4SBO5qrxnPHuvGs-25" value="ERC20Impl" style="rounded=0;whiteSpace=wrap;html=1;" vertex="1" parent="1">
          <mxGeometry x="660" y="480" width="120" height="60" as="geometry" />
        </mxCell>
        <mxCell id="wtzsH4SBO5qrxnPHuvGs-28" value="FactoryProxy" style="rounded=0;whiteSpace=wrap;html=1;" vertex="1" parent="1">
          <mxGeometry x="-210" y="450" width="120" height="60" as="geometry" />
        </mxCell>
        <mxCell id="wtzsH4SBO5qrxnPHuvGs-29" value="FactoryProxy" style="rounded=0;whiteSpace=wrap;html=1;" vertex="1" parent="1">
          <mxGeometry x="-210" y="560" width="120" height="60" as="geometry" />
        </mxCell>
        <mxCell id="wtzsH4SBO5qrxnPHuvGs-30" value="Factory" style="rounded=0;whiteSpace=wrap;html=1;" vertex="1" parent="1">
          <mxGeometry x="-60" y="450" width="120" height="60" as="geometry" />
        </mxCell>
        <mxCell id="wtzsH4SBO5qrxnPHuvGs-31" value="Factory" style="rounded=0;whiteSpace=wrap;html=1;" vertex="1" parent="1">
          <mxGeometry x="-60" y="560" width="120" height="60" as="geometry" />
        </mxCell>
      </root>
    </mxGraphModel>
  </diagram>
</mxfile>
